<?xml version="1.0" encoding="UTF-8" standalone="no"?>
<svg width="92px" height="82px" viewBox="0 0 92 82" version="1.1" xmlns="http://www.w3.org/2000/svg" xmlns:xlink="http://www.w3.org/1999/xlink" xmlns:sketch="http://www.bohemiancoding.com/sketch/ns">
    <!-- Generator: Sketch 3.5.1 (25234) - http://www.bohemiancoding.com/sketch -->
    <title>Group 16</title>
    <desc>Created with Sketch.</desc>
    <defs></defs>
    <g id="Welcome" stroke="none" stroke-width="1" fill="none" fill-rule="evenodd" sketch:type="MSPage">
        <g id="Services" sketch:type="MSArtboardGroup" transform="translate(-212.000000, -2994.000000)">
            <g id="Group-16" sketch:type="MSLayerGroup" transform="translate(212.000000, 2994.000000)">
                <path d="M2.02945535,77.9672131 C1.49503266,77.9672131 0.976866172,77.7572551 0.592813363,77.3756968 C0.127479537,76.9133855 -0.0797870579,76.2572668 0.0279102905,75.6172987 L3.47219342,55.0555472 C3.54128228,54.6396689 3.7424528,54.2560918 4.03912851,53.9593242 L36.1126181,22.1002177 C36.90714,21.3108564 38.1893481,21.3108564 38.9859021,22.1002177 C39.780424,22.8915978 39.780424,24.1674964 38.9859021,24.9548389 L7.37165024,56.3597093 L4.50039829,73.4894552 L21.7401021,70.634834 L53.354354,39.2299635 C54.1488759,38.4385834 55.431084,38.4385834 56.227638,39.2299635 C57.0221599,40.0193248 57.0221599,41.2932046 56.227638,42.0845847 L24.1561804,73.94571 C23.8574727,74.2404587 23.4713878,74.4403226 23.0527906,74.5069439 L2.35864347,77.9328931 C2.25297815,77.9551002 2.14324878,77.9672131 2.02945535,77.9672131 L2.02945535,77.9672131 Z" id="Shape" fill="#1C2731" sketch:type="MSShapeGroup"></path>
                <path d="M58.175472,37.6393443 C57.6442103,37.6393443 57.1369153,37.4308683 56.7654316,37.057597 L39.8209802,20.2107529 C39.0400654,19.4344281 39.0400654,18.1815867 39.8209802,17.4032764 L56.7654316,0.558417786 C57.5143907,-0.186139262 58.8385505,-0.186139262 59.5875096,0.558417786 L76.531961,17.4032764 C77.3128757,18.1815867 77.3128757,19.4344281 76.531961,20.2107529 L59.5875096,37.0556115 C59.2140286,37.4288828 58.7067337,37.6393443 58.175472,37.6393443 L58.175472,37.6393443 Z M44.0550958,18.8070147 L58.1734748,32.8463824 L72.2938509,18.8090001 L58.1734748,4.77161794 L44.0550958,18.8070147 L44.0550958,18.8070147 Z" id="Shape" fill="#1C2731" sketch:type="MSShapeGroup"></path>
                <path d="M89.9472617,73.9344262 L34.5233266,73.9344262 C33.3881623,73.9344262 32.4705882,73.0351148 32.4705882,71.9180328 C32.4705882,70.8029672 33.3881623,69.9016393 34.5233266,69.9016393 L89.9472617,69.9016393 C91.0844787,69.9016393 92,70.8029672 92,71.9180328 C92,73.0330984 91.082426,73.9344262 89.9472617,73.9344262 L89.9472617,73.9344262 Z" id="Shape" fill="#831E34" sketch:type="MSShapeGroup"></path>
                <path d="M62.8884381,82 L7.46450304,82 C6.32933874,82 5.41176471,81.1006885 5.41176471,79.9836066 C5.41176471,78.868541 6.32933874,77.9672131 7.46450304,77.9672131 L62.8884381,77.9672131 C64.0256552,77.9672131 64.9411765,78.868541 64.9411765,79.9836066 C64.9411765,81.0986721 64.0236024,82 62.8884381,82 L62.8884381,82 Z" id="Shape" fill="#831E34" sketch:type="MSShapeGroup"></path>
            </g>
        </g>
    </g>
</svg>