<?xml version="1.0" encoding="UTF-8" standalone="no"?>
<svg width="16px" height="19px" viewBox="0 0 16 19" version="1.1" xmlns="http://www.w3.org/2000/svg" xmlns:xlink="http://www.w3.org/1999/xlink" xmlns:sketch="http://www.bohemiancoding.com/sketch/ns">
    <!-- Generator: Sketch 3.5.1 (25234) - http://www.bohemiancoding.com/sketch -->
    <title>Group</title>
    <desc>Created with Sketch.</desc>
    <defs></defs>
    <g id="Welcome" stroke="none" stroke-width="1" fill="none" fill-rule="evenodd" sketch:type="MSPage">
        <g id="Mobile-Portrait-Copy-10" sketch:type="MSArtboardGroup" transform="translate(-152.000000, -867.000000)">
            <g id="Group" sketch:type="MSLayerGroup" transform="translate(152.000000, 867.000000)">
                <path d="M7.89145946,19 C4.68410811,19 0.107675676,11.6263111 0.107675676,7.6 C0.107675676,3.40944444 3.59956757,0 7.89145946,0 C12.1833514,0 15.6752432,3.40944444 15.6752432,7.6 C15.6752432,11.6263111 11.0988108,19 7.89145946,19 M7.89145946,0.844444444 C4.07654054,0.844444444 0.972540541,3.87515556 0.972540541,7.6 C0.972540541,11.4472889 5.36951351,18.1555556 7.89145946,18.1555556 C10.4134054,18.1555556 14.8103784,11.4472889 14.8103784,7.6 C14.8103784,3.87515556 11.7059459,0.844444444 7.89145946,0.844444444" id="Shape" fill="#48A4AA" sketch:type="MSShapeGroup"></path>
                <path d="M8.21621622,12.6666667 L8.21621622,11.8222222 C10.3783784,11.8222222 12.3783784,9.92813333 12.3783784,7.6 C12.3783784,5.27186667 10.3571892,3.37777778 7.97275676,3.37777778 C5.58789189,3.37777778 3.56713514,5.06666667 3.56713514,7.6 L2.70227027,7.6 C2.70227027,4.64444444 5.03005405,2.53333333 7.89145946,2.53333333 C10.7528649,2.53333333 13.2432432,4.80615556 13.2432432,7.6 C13.2432432,10.3938444 10.8108108,12.6666667 8.21621622,12.6666667" id="Shape" fill="#48A4AA" sketch:type="MSShapeGroup"></path>
                <path d="M7.89145946,9.71111111 C6.69924324,9.71111111 5.7292973,8.76406667 5.7292973,7.6 C5.7292973,6.43593333 6.69924324,5.48888889 7.89145946,5.48888889 C9.08367568,5.48888889 10.0536216,6.43593333 10.0536216,7.6 C10.0536216,8.76406667 9.08367568,9.71111111 7.89145946,9.71111111 M7.89145946,6.33333333 C7.17621622,6.33333333 6.59416216,6.90164444 6.59416216,7.6 C6.59416216,8.29835556 7.17621622,8.86666667 7.89145946,8.86666667 C8.60627027,8.86666667 9.18875676,8.29835556 9.18875676,7.6 C9.18875676,6.90164444 8.60627027,6.33333333 7.89145946,6.33333333" id="Shape" fill="#E3E3B6" sketch:type="MSShapeGroup"></path>
                <rect id="Rectangle-path" fill="#E3E3B6" sketch:type="MSShapeGroup" x="9.94594595" y="7.17777778" width="3.02702703" height="0.844444444"></rect>
            </g>
        </g>
    </g>
</svg>