<?xml version="1.0" encoding="UTF-8" standalone="no"?>
<svg width="69px" height="99px" viewBox="0 0 69 99" version="1.1" xmlns="http://www.w3.org/2000/svg" xmlns:xlink="http://www.w3.org/1999/xlink" xmlns:sketch="http://www.bohemiancoding.com/sketch/ns">
    <!-- Generator: Sketch 3.5.1 (25234) - http://www.bohemiancoding.com/sketch -->
    <title>Group</title>
    <desc>Created with Sketch.</desc>
    <defs></defs>
    <g id="Page-2" stroke="none" stroke-width="1" fill="none" fill-rule="evenodd" sketch:type="MSPage">
        <g id="iPad-Pro-Portrait" sketch:type="MSArtboardGroup" fill="#FFFFFF">
            <g id="Group" sketch:type="MSLayerGroup">
                <g id="Shape" sketch:type="MSShapeGroup">
                    <path d="M37.261,98.312 C36.877,98.312 36.519,98.109 36.323,97.777 L0.637,37.415 C0.443,37.087 0.435,36.682 0.615,36.346 L19.526,1.107 C19.668,0.842 19.913,0.648 20.204,0.57 C20.494,0.493 20.804,0.538 21.059,0.696 L26.388,3.996 C26.77,4.178 29.768,5.563 32.422,5.313 C32.976,5.255 33.49,5.642 33.595,6.195 C33.612,6.284 35.264,14.835 39.766,22.34 C40.185,21.996 40.609,21.445 40.529,20.662 C40.476,20.143 40.799,19.66 41.298,19.509 C41.797,19.358 42.333,19.583 42.576,20.044 C44.692,24.062 47.691,28.521 48.947,29.041 C49.58,28.972 52.004,28.545 53.926,26.03 C54.132,25.762 54.449,25.603 54.787,25.602 L54.791,25.602 C55.127,25.602 55.445,25.757 55.651,26.023 L56.089,26.586 C56.742,26.051 57.67,25.062 58.14,23.499 C58.261,23.1 58.598,22.804 59.011,22.738 C59.421,22.672 59.837,22.847 60.076,23.189 L69.617,36.853 C69.85,37.187 69.878,37.624 69.688,37.984 L38.224,97.729 C38.04,98.079 37.682,98.301 37.288,98.311 C37.278,98.312 37.269,98.312 37.261,98.312 L37.261,98.312 Z M2.824,36.835 L37.205,94.991 L67.451,37.557 L59.396,26.021 C58.165,28.097 56.433,28.987 56.341,29.033 C55.876,29.265 55.312,29.138 54.992,28.728 L54.741,28.404 C52.067,31.096 49.006,31.228 48.862,31.233 C48.775,31.234 48.68,31.227 48.59,31.207 C46.487,30.737 43.618,26.311 41.87,23.278 C41.234,24.092 40.375,24.61 39.779,24.834 C39.296,25.015 38.755,24.834 38.478,24.401 C34.201,17.702 32.234,10.124 31.647,7.521 C28.533,7.483 25.505,5.992 25.376,5.927 C25.346,5.912 25.317,5.896 25.289,5.879 L20.896,3.159 L2.824,36.835 L2.824,36.835 Z"></path>
                    <path d="M42.226,37.695 C42.203,37.695 42.18,37.695 42.157,37.693 C41.848,37.673 41.563,37.524 41.371,37.281 L24.441,15.853 L2.339,37.636 L0.81,36.085 L23.778,13.448 C23.998,13.231 24.3,13.116 24.609,13.136 C24.919,13.155 25.205,13.305 25.396,13.548 L42.329,34.98 L47.862,29.559 L49.386,31.115 L42.988,37.383 C42.783,37.583 42.51,37.695 42.226,37.695 L42.226,37.695 Z"></path>
                    <path d="M56.069,60.725 L23.406,25.222 L2.489,38.497 L1.322,36.658 L23.008,22.896 C23.453,22.614 24.037,22.69 24.394,23.079 L57.672,59.252 L56.069,60.725 L56.069,60.725 Z"></path>
                    <path d="M52.914,66.762 L21.974,34.492 L2.828,39.98 L2.227,37.887 L22.005,32.217 C22.394,32.106 22.812,32.219 23.091,32.51 L54.486,65.254 L52.914,66.762 L52.914,66.762 Z"></path>
                </g>
            </g>
        </g>
    </g>
</svg>