<?xml version="1.0" encoding="UTF-8" standalone="no"?>
<svg width="187px" height="200px" viewBox="0 0 187 200" version="1.1" xmlns="http://www.w3.org/2000/svg" xmlns:xlink="http://www.w3.org/1999/xlink" xmlns:sketch="http://www.bohemiancoding.com/sketch/ns">
    <!-- Generator: Sketch 3.5.1 (25234) - http://www.bohemiancoding.com/sketch -->
    <title>Page 1</title>
    <desc>Created with Sketch.</desc>
    <defs>
        <path id="path-1" d="M0,0.303 L196.947,0.303 L196.947,204 L0,204 L0,0.303 Z"></path>
    </defs>
    <g id="Welcome" stroke="none" stroke-width="1" fill="none" fill-rule="evenodd" sketch:type="MSPage">
        <g id="Work-2" sketch:type="MSArtboardGroup" transform="translate(-603.000000, -1152.000000)">
            <g id="Page-1" sketch:type="MSLayerGroup" transform="translate(602.000000, 1152.000000)">
                <path d="M52.2256,50.3423 L78.2746,1.8033 L85.6816,6.3903 C85.6816,6.3903 90.5076,8.7953 94.8576,8.3813 C94.8576,8.3813 97.3046,21.3783 104.3246,32.3713 C104.3246,32.3713 107.7036,31.1033 107.3746,27.8783 C107.3746,27.8783 113.9306,40.3333 117.3156,41.0903 C117.3156,41.0903 122.0106,40.9403 125.5286,36.3363 L126.9916,38.2193 C126.9916,38.2193 130.3216,36.5483 131.5786,32.3713 L144.7206,51.1933 L101.3806,133.4883 L52.2256,50.3423 L52.2256,50.3423 Z" id="Stroke-1" stroke="#13222F" stroke-width="3" stroke-linejoin="round" sketch:type="MSShapeGroup"></path>
                <path d="M52.2256,50.3423 L83.8626,19.1603 L108.2196,49.9903 L117.0336,41.3563" id="Stroke-3" stroke="#13222F" stroke-width="3" stroke-linejoin="round" sketch:type="MSShapeGroup"></path>
                <path d="M52.6816,51.3286 L82.5526,32.3716 L128.3926,82.1976" id="Stroke-5" stroke="#13222F" stroke-width="3" stroke-linejoin="round" sketch:type="MSShapeGroup"></path>
                <path d="M124.0254,90.4907 L80.7814,45.3867 L53.5384,53.1967" id="Stroke-7" stroke="#13222F" stroke-width="3" stroke-linejoin="round" sketch:type="MSShapeGroup"></path>
                <mask id="mask-2" sketch:name="Clip 9" fill="white">
                    <use xlink:href="#path-1"></use>
                </mask>
                <g id="Clip-9"></g>
                <text id="NATALIA-CAMACHO" sketch:type="MSTextLayer" mask="url(#mask-2)" font-family="Coves" font-size="21.0088" font-weight="bold" letter-spacing="0.025" fill="#13222F">
                    <tspan x="0" y="169.715895">NATALIA CAMACHO</tspan>
                </text>
                <text id="·-diseñadora-gráfica-·" sketch:type="MSTextLayer" mask="url(#mask-2)" font-family="Coves" font-size="21.0088" font-weight="260" letter-spacing="0.025" fill="#13222F">
                    <tspan x="13.0674736" y="194.338208">· di</tspan>
                    <tspan x="36.9562466" y="194.338208" letter-spacing="0.61114552">s</tspan>
                    <tspan x="45.1482043" y="194.338208">eñ</tspan>
                    <tspan x="64.4938844" y="194.338208" letter-spacing="0.49349624">a</tspan>
                    <tspan x="73.4196236" y="194.338208">d</tspan>
                    <tspan x="84.4106427" y="194.338208" letter-spacing="0.602742">o</tspan>
                    <tspan x="95.5280429" y="194.338208">ra </tspan>
                    <tspan x="114.283231" y="194.338208" letter-spacing="0.53341296">g</tspan>
                    <tspan x="126.039118" y="194.338208">r</tspan>
                    <tspan x="131.562515" y="194.338208" letter-spacing="0.62164992">á</tspan>
                    <tspan x="141.498613" y="194.338208">fica ·</tspan>
                </text>
            </g>
        </g>
    </g>
</svg>