<?xml version="1.0" encoding="UTF-8" standalone="no"?>
<svg width="435px" height="137px" viewBox="0 0 435 137" version="1.1" xmlns="http://www.w3.org/2000/svg" xmlns:xlink="http://www.w3.org/1999/xlink" xmlns:sketch="http://www.bohemiancoding.com/sketch/ns">
    <!-- Generator: Sketch 3.5.1 (25234) - http://www.bohemiancoding.com/sketch -->
    <title>Group 2</title>
    <desc>Created with Sketch.</desc>
    <defs></defs>
    <g id="Welcome" stroke="none" stroke-width="1" fill="none" fill-rule="evenodd" sketch:type="MSPage">
        <g id="Work-2" sketch:type="MSArtboardGroup" transform="translate(-463.000000, -1645.000000)">
            <g id="Group-2" sketch:type="MSLayerGroup" transform="translate(465.000000, 1649.000000)">
                <g id="Group-5" transform="translate(151.000000, 34.000000)" stroke="#00A5AB" stroke-width="3" sketch:type="MSShapeGroup" stroke-linecap="round" stroke-linejoin="round">
                    <path d="M0.2744,69.0654 L44.7634,25.2154 L79.4044,69.0654 L0.2744,69.0654 L0.2744,69.0654 Z" id="Stroke-1"></path>
                    <path d="M91.8052,56.0557 C86.5772,54.1997 77.8272,37.4757 77.8272,37.4757 C75.3932,46.3997 68.5892,44.5367 68.5892,44.5367 C67.0062,44.5367 65.2642,51.1637 65.2642,51.1637" id="Stroke-2"></path>
                    <path d="M79.4048,69.0654 C79.4048,69.0654 84.6328,62.7494 91.8048,56.0554 C91.8048,56.0554 98.3688,55.6864 103.3528,49.3704 L118.6678,69.0654 L79.4048,69.0654 L79.4048,69.0654 Z" id="Stroke-4"></path>
                    <path d="M105.4136,52.0166 C105.4136,52.0166 109.6746,50.8586 111.8626,43.7936 L130.3376,69.0656 L118.6676,69.0656 L105.4136,52.0166 L105.4136,52.0166 Z" id="Stroke-6"></path>
                    <path d="M73.5352,43.7939 C73.5352,43.7939 58.5842,17.0579 60.2232,10.0589 C60.2232,10.0589 47.8672,8.8959 47.3202,7.2569 L36.9042,0.8069 L0.2742,69.0649" id="Stroke-8"></path>
                </g>
                <g id="Group-4" transform="translate(355.000000, 50.000000)" stroke="#00A5AB" stroke-width="3" sketch:type="MSShapeGroup" stroke-linecap="round" stroke-linejoin="round">
                    <path d="M0.1191,31.5723 L31.7561,0.3903 L56.1131,31.2203 L64.9271,22.5863" id="Stroke-10"></path>
                    <path d="M0.5752,32.5586 L30.4462,13.6016 L76.2862,63.4276" id="Stroke-12"></path>
                    <path d="M71.9189,71.7207 L28.6749,26.6167 L1.4319,34.4267" id="Stroke-14"></path>
                </g>
                <text id="+" sketch:type="MSTextLayer" font-family="Coves" font-size="40" font-weight="bold" fill="#FEFEFE">
                    <tspan x="109.7656" y="78.7500125">+</tspan>
                </text>
                <text id="+" sketch:type="MSTextLayer" font-family="Coves" font-size="40" font-weight="bold" fill="#FEFEFE">
                    <tspan x="307.8056" y="78.7500125">+</tspan>
                </text>
                <path d="M30.284,0 L0,64.54 L30.438,129.08 L60.722,64.54 L30.284,0 L30.284,0 Z" id="Stroke-17" stroke="#00A5AB" stroke-width="3" sketch:type="MSShapeGroup"></path>
            </g>
        </g>
    </g>
</svg>