<?xml version="1.0" encoding="UTF-8" standalone="no"?>
<svg width="83px" height="80px" viewBox="0 0 83 80" version="1.1" xmlns="http://www.w3.org/2000/svg" xmlns:xlink="http://www.w3.org/1999/xlink" xmlns:sketch="http://www.bohemiancoding.com/sketch/ns">
    <!-- Generator: Sketch 3.5.1 (25234) - http://www.bohemiancoding.com/sketch -->
    <title>Group 5</title>
    <desc>Created with Sketch.</desc>
    <defs></defs>
    <g id="Welcome" stroke="none" stroke-width="1" fill="none" fill-rule="evenodd" sketch:type="MSPage">
        <g id="Services" sketch:type="MSArtboardGroup" transform="translate(-641.000000, -2619.000000)">
            <g id="Group-5" sketch:type="MSLayerGroup" transform="translate(641.000000, 2619.000000)">
                <path d="M12,14 L2,14 C0.896,14 0,13.104 0,12 L0,2 C0,0.894 0.896,0 2,0 L12,0 C13.104,0 14,0.894 14,2 L14,12 C14,13.104 13.104,14 12,14 L12,14 Z M4,10 L10,10 L10,4 L4,4 L4,10 L4,10 Z" id="Shape" fill="#831E34" sketch:type="MSShapeGroup"></path>
                <path d="M12,48 L2,48 C0.896,48 0,47.104 0,46 L0,36 C0,34.894 0.896,34 2,34 L12,34 C13.104,34 14,34.894 14,36 L14,46 C14,47.104 13.104,48 12,48 L12,48 Z M4,44 L10,44 L10,38 L4,38 L4,44 L4,44 Z" id="Shape" fill="#831E34" sketch:type="MSShapeGroup"></path>
                <path d="M12,80 L2,80 C0.896,80 0,79.104 0,78 L0,68 C0,66.894 0.896,66 2,66 L12,66 C13.104,66 14,66.894 14,68 L14,78 C14,79.104 13.104,80 12,80 L12,80 Z M4,76 L10,76 L10,70 L4,70 L4,76 L4,76 Z" id="Shape" fill="#831E34" sketch:type="MSShapeGroup"></path>
                <path d="M26.1851852,14 C24.978963,14 24,13.106 24,12 L24,2 C24,0.894 24.978963,0 26.1851852,0 L80.8148148,0 C82.021037,0 83,0.894 83,2 C83,3.106 82.021037,4 80.8148148,4 L28.3703704,4 L28.3703704,12 C28.3703704,13.106 27.3914074,14 26.1851852,14" id="Shape" fill="#1C2731" sketch:type="MSShapeGroup"></path>
                <path d="M26.1851852,48 C24.978963,48 24,47.106 24,46 L24,36 C24,34.894 24.978963,34 26.1851852,34 L80.8148148,34 C82.021037,34 83,34.894 83,36 C83,37.106 82.021037,38 80.8148148,38 L28.3703704,38 L28.3703704,46 C28.3703704,47.106 27.3914074,48 26.1851852,48" id="Shape" fill="#1C2731" sketch:type="MSShapeGroup"></path>
                <path d="M26.1851852,80 C24.978963,80 24,79.106 24,78 L24,68 C24,66.894 24.978963,66 26.1851852,66 L80.8148148,66 C82.021037,66 83,66.894 83,68 C83,69.106 82.021037,70 80.8148148,70 L28.3703704,70 L28.3703704,78 C28.3703704,79.106 27.3914074,80 26.1851852,80" id="Shape" fill="#1C2731" sketch:type="MSShapeGroup"></path>
            </g>
        </g>
    </g>
</svg>