<?xml version="1.0" encoding="UTF-8" standalone="no"?>
<svg width="87px" height="87px" viewBox="0 0 87 87" version="1.1" xmlns="http://www.w3.org/2000/svg" xmlns:xlink="http://www.w3.org/1999/xlink" xmlns:sketch="http://www.bohemiancoding.com/sketch/ns">
    <!-- Generator: Sketch 3.5.1 (25234) - http://www.bohemiancoding.com/sketch -->
    <title>Group 7</title>
    <desc>Created with Sketch.</desc>
    <defs></defs>
    <g id="Welcome" stroke="none" stroke-width="1" fill="none" fill-rule="evenodd" sketch:type="MSPage">
        <g id="Services" sketch:type="MSArtboardGroup" transform="translate(-1064.000000, -2612.000000)">
            <g id="Group-7" sketch:type="MSLayerGroup" transform="translate(1064.000000, 2612.000000)">
                <path d="M40.2943063,38.3389908 C39.8018272,38.3389908 39.309348,38.1462538 38.9342174,37.7627465 C38.1820325,36.9937651 38.1820325,35.750808 38.9342174,34.9818267 L52.5370299,21.075261 C53.2892149,20.3082463 54.5050228,20.3082463 55.2572077,21.075261 C56.0093926,21.8442423 56.0093926,23.0891661 55.2572077,23.8561808 L41.6543952,37.7627465 C41.2773409,38.1482205 40.7848617,38.3389908 40.2943063,38.3389908 L114,123" id="Shape" fill="#831E34" sketch:type="MSShapeGroup"></path>
                <path d="M44.3213509,43.9519073 C43.5044316,43.1334627 43.5044316,41.8105548 44.3213509,40.9921102 L51.7070532,33.5905244 C52.5260618,32.774173 53.8465042,32.774173 54.6613341,33.5905244 C55.4803427,34.4068758 55.4803427,35.7339701 54.6613341,36.5503214 L47.2777211,43.9519073 C46.8682168,44.3621762 46.3354434,44.5652174 45.8005806,44.5652174 C45.2636286,44.5652174 44.7287658,44.3600829 44.3213509,43.9519073 Z" id="Shape" fill="#831E34" sketch:type="MSShapeGroup"></path>
                <path d="M1.96893993,86.4565217 C1.46501729,86.4565217 0.961094646,86.2632534 0.577247322,85.8786888 C-0.192415774,85.1075876 -0.192415774,83.861204 0.577247322,83.0901028 L24.4702669,59.1504661 C12.0237714,45.2312013 12.4745459,23.756722 25.824559,10.3817639 C39.6371573,-3.46058798 62.1168314,-3.46058798 75.9313982,10.3817639 C82.6221523,17.0869921 86.3070866,26.0010013 86.3070866,35.4829828 C86.3070866,44.9649643 82.6221523,53.8809456 75.9313982,60.5842016 C66.6659143,69.8689705 53.1111826,73.2669435 40.5564225,69.4489077 C39.517082,69.1313954 38.9304846,68.0309492 39.2454362,66.9876945 C39.5603879,65.9464121 40.6666555,65.3606907 41.7020591,65.6742587 C52.8611898,69.0682874 64.9100589,66.0469905 73.148013,57.7956156 C79.0946938,51.835851 82.3721594,43.911849 82.3721594,35.4829828 C82.3721594,27.0541166 79.0966623,19.1301146 73.148013,13.17035 C60.866867,0.868228441 40.8871217,0.868228441 28.6079442,13.17035 C16.3267983,25.4744437 16.3267983,45.4915219 28.6079442,57.7956156 C28.976044,58.1644031 29.1846994,58.6672952 29.1846994,59.1899086 C29.1846994,59.712522 28.976044,60.213442 28.6079442,60.5842016 L3.36063253,85.8767167 C2.97678521,86.2632534 2.47286257,86.4565217 1.96893993,86.4565217" id="Shape" fill="#1C2731" sketch:type="MSShapeGroup"></path>
                <path d="M51.5996482,62.5 C44.2313269,62.5 37.3024642,59.6245639 32.0920225,54.4045717 C21.3341552,43.6330341 21.3341552,26.1041228 32.0920225,15.3325852 C37.3044349,10.1145666 44.2313269,7.23913043 51.5996482,7.23913043 C58.9679695,7.23913043 65.8948615,10.1145666 71.1053032,15.3325852 C76.3177156,20.5506038 79.1889764,27.4875688 79.1889764,34.8685785 C79.1889764,42.2495881 76.3177156,49.1845796 71.1053032,54.4045717 C65.8928909,59.6245639 58.9679695,62.5 51.5996482,62.5 M51.5996482,11.188168 C45.2816921,11.188168 39.3421038,13.6531094 34.8785447,18.125133 C25.6558264,27.3573157 25.6558264,42.3837883 34.8785447,51.615971 C39.3440745,56.0879945 45.2816921,58.5549095 51.5996482,58.5549095 C57.9156337,58.5549095 63.8552219,56.0879945 68.3187811,51.615971 C72.7882522,47.1439475 75.2476438,41.1976956 75.2476438,34.870552 C75.2476438,28.5434084 72.7882522,22.5971565 68.3187811,18.125133 C63.8552219,13.6531094 57.9156337,11.188168 51.5996482,11.188168" id="Shape" fill="#1C2731" sketch:type="MSShapeGroup"></path>
            </g>
        </g>
    </g>
</svg>