<?xml version="1.0" encoding="UTF-8" standalone="no"?>
<svg width="38px" height="77px" viewBox="0 0 38 77" version="1.1" xmlns="http://www.w3.org/2000/svg" xmlns:xlink="http://www.w3.org/1999/xlink" xmlns:sketch="http://www.bohemiancoding.com/sketch/ns">
    <!-- Generator: Sketch 3.5.1 (25234) - http://www.bohemiancoding.com/sketch -->
    <title>Group</title>
    <desc>Created with Sketch.</desc>
    <defs></defs>
    <g id="Page-1" stroke="none" stroke-width="1" fill="none" fill-rule="evenodd" sketch:type="MSPage">
        <g id="Tablet-Portrait" sketch:type="MSArtboardGroup" transform="translate(0.000000, -11.000000)">
            <g id="Group" sketch:type="MSLayerGroup" transform="translate(0.000000, 11.000000)">
                <path d="M3.705,10.965 C5.2250076,10.965 5.985,10.4450052 5.985,9.405 C5.985,9.0849984 5.91750068,8.81250113 5.7825,8.5875 C5.64749933,8.36249888 5.46500115,8.16750083 5.235,8.0025 C5.00499885,7.83749918 4.74250148,7.6950006 4.4475,7.575 C4.15249853,7.4549994 3.84000165,7.3350006 3.51,7.215 C3.1299981,7.08499935 2.7700017,6.93750083 2.43,6.7725 C2.0899983,6.60749918 1.79500125,6.41250113 1.545,6.1875 C1.29499875,5.96249888 1.09750073,5.69500155 0.9525,5.385 C0.807499275,5.07499845 0.735,4.7000022 0.735,4.26 C0.735,3.34999545 1.0449969,2.64000255 1.665,2.13 C2.2850031,1.61999745 3.13999455,1.365 4.23,1.365 C4.86000315,1.365 5.43249743,1.43249933 5.9475,1.5675 C6.46250258,1.70250068 6.8399988,1.8499992 7.08,2.01 L6.615,3.195 C6.40499895,3.06499935 6.09250208,2.93750063 5.6775,2.8125 C5.26249793,2.68749938 4.78000275,2.625 4.23,2.625 C3.9499986,2.625 3.6900012,2.6549997 3.45,2.715 C3.2099988,2.7750003 3.0000009,2.8649994 2.82,2.985 C2.6399991,3.1050006 2.49750053,3.25749908 2.3925,3.4425 C2.28749948,3.62750093 2.235,3.84499875 2.235,4.095 C2.235,4.3750014 2.28999945,4.60999905 2.4,4.8 C2.51000055,4.99000095 2.664999,5.15749928 2.865,5.3025 C3.065001,5.44750073 3.29749868,5.5799994 3.5625,5.7 C3.82750133,5.8200006 4.1199984,5.9399994 4.44,6.06 C4.89000225,6.2400009 5.30249813,6.4199991 5.6775,6.6 C6.05250188,6.7800009 6.37749863,6.99499875 6.6525,7.245 C6.92750138,7.49500125 7.13999925,7.79249828 7.29,8.1375 C7.44000075,8.48250173 7.515,8.89999755 7.515,9.39 C7.515,10.3000046 7.18250333,10.9999976 6.5175,11.49 C5.85249668,11.9800025 4.91500605,12.225 3.705,12.225 C3.29499795,12.225 2.91750173,12.1975003 2.5725,12.1425 C2.22749828,12.0874997 1.92000135,12.0225004 1.65,11.9475 C1.37999865,11.8724996 1.14750098,11.7925004 0.9525,11.7075 C0.757499025,11.6224996 0.60500055,11.5500003 0.495,11.49 L0.93,10.29 C1.16000115,10.4200007 1.50999765,10.5649992 1.98,10.725 C2.45000235,10.8850008 3.0249966,10.965 3.705,10.965 L3.705,10.965 Z M12.57,12.18 C11.9399969,12.18 11.3875024,12.080001 10.9125,11.88 C10.4374976,11.679999 10.0375016,11.4000018 9.7125,11.04 C9.38749838,10.6799982 9.1450008,10.2525025 8.985,9.7575 C8.8249992,9.26249753 8.745,8.715003 8.745,8.115 C8.745,7.514997 8.83249913,6.9650025 9.0075,6.465 C9.18250088,5.9649975 9.4299984,5.53250183 9.75,5.1675 C10.0700016,4.80249818 10.4624977,4.51750103 10.9275,4.3125 C11.3925023,4.10749898 11.9099972,4.005 12.48,4.005 C12.8300018,4.005 13.1799983,4.0349997 13.53,4.095 C13.8800018,4.1550003 14.2149984,4.24999935 14.535,4.38 L14.22,5.565 C14.009999,5.4649995 13.7675014,5.3850003 13.4925,5.325 C13.2174986,5.2649997 12.9250016,5.235 12.615,5.235 C11.8349961,5.235 11.2375021,5.47999755 10.8225,5.97 C10.4074979,6.46000245 10.2,7.1749953 10.2,8.115 C10.2,8.5350021 10.2474995,8.91999825 10.3425,9.27 C10.4375005,9.62000175 10.587499,9.91999875 10.7925,10.17 C10.997501,10.4200013 11.2599984,10.6124993 11.58,10.7475 C11.9000016,10.8825007 12.2899977,10.95 12.75,10.95 C13.1200019,10.95 13.4549985,10.9150004 13.755,10.845 C14.0550015,10.7749997 14.2899992,10.7000004 14.46,10.62 L14.655,11.79 C14.5749996,11.8400003 14.4600008,11.8874998 14.31,11.9325 C14.1599993,11.9775002 13.990001,12.0174998 13.8,12.0525 C13.6099991,12.0875002 13.4075011,12.1174999 13.1925,12.1425 C12.9774989,12.1675001 12.770001,12.18 12.57,12.18 L12.57,12.18 Z M19.035,4.035 C19.1550006,4.035 19.2924992,4.04249993 19.4475,4.0575 C19.6025008,4.07250008 19.7549993,4.09249988 19.905,4.1175 C20.0550008,4.14250013 20.1924994,4.16749988 20.3175,4.1925 C20.4425006,4.21750013 20.5349997,4.2399999 20.595,4.26 L20.355,5.475 C20.2449995,5.4349998 20.0625013,5.38750028 19.8075,5.3325 C19.5524987,5.27749973 19.225002,5.25 18.825,5.25 C18.5649987,5.25 18.3075013,5.27749973 18.0525,5.3325 C17.7974987,5.38750028 17.6300004,5.4249999 17.55,5.445 L17.55,12 L16.155,12 L16.155,4.53 C16.4850017,4.4099994 16.8949976,4.29750053 17.385,4.1925 C17.8750025,4.08749948 18.424997,4.035 19.035,4.035 L19.035,4.035 Z M28.83,8.1 C28.83,8.7200031 28.7400009,9.2799975 28.56,9.78 C28.3799991,10.2800025 28.1275016,10.7099982 27.8025,11.07 C27.4774984,11.4300018 27.0900023,11.707499 26.64,11.9025 C26.1899978,12.097501 25.7000027,12.195 25.17,12.195 C24.6399974,12.195 24.1500023,12.097501 23.7,11.9025 C23.2499978,11.707499 22.8625016,11.4300018 22.5375,11.07 C22.2124984,10.7099982 21.9600009,10.2800025 21.78,9.78 C21.5999991,9.2799975 21.51,8.7200031 21.51,8.1 C21.51,7.48999695 21.5999991,6.93250253 21.78,6.4275 C21.9600009,5.92249748 22.2124984,5.4900018 22.5375,5.13 C22.8625016,4.7699982 23.2499978,4.49250098 23.7,4.2975 C24.1500023,4.10249903 24.6399974,4.005 25.17,4.005 C25.7000027,4.005 26.1899978,4.10249903 26.64,4.2975 C27.0900023,4.49250098 27.4774984,4.7699982 27.8025,5.13 C28.1275016,5.4900018 28.3799991,5.92249748 28.56,6.4275 C28.7400009,6.93250253 28.83,7.48999695 28.83,8.1 L28.83,8.1 Z M27.375,8.1 C27.375,7.2199956 27.177502,6.52250258 26.7825,6.0075 C26.387498,5.49249743 25.8500034,5.235 25.17,5.235 C24.4899966,5.235 23.952502,5.49249743 23.5575,6.0075 C23.162498,6.52250258 22.965,7.2199956 22.965,8.1 C22.965,8.9800044 23.162498,9.67749743 23.5575,10.1925 C23.952502,10.7075026 24.4899966,10.965 25.17,10.965 C25.8500034,10.965 26.387498,10.7075026 26.7825,10.1925 C27.177502,9.67749743 27.375,8.9800044 27.375,8.1 L27.375,8.1 Z M33.135,12.15 C32.2749957,12.1299999 31.6650018,11.9450018 31.305,11.595 C30.9449982,11.2449983 30.765,10.7000037 30.765,9.96 L30.765,0.6 L32.16,0.36 L32.16,9.735 C32.16,9.96500115 32.1799998,10.1549993 32.22,10.305 C32.2600002,10.4550008 32.3249996,10.5749996 32.415,10.665 C32.5050005,10.7550005 32.6249993,10.8224998 32.775,10.8675 C32.9250008,10.9125002 33.1099989,10.9499999 33.33,10.98 L33.135,12.15 Z M37.23,12.15 C36.3699957,12.1299999 35.7600018,11.9450018 35.4,11.595 C35.0399982,11.2449983 34.86,10.7000037 34.86,9.96 L34.86,0.6 L36.255,0.36 L36.255,9.735 C36.255,9.96500115 36.2749998,10.1549993 36.315,10.305 C36.3550002,10.4550008 36.4199996,10.5749996 36.51,10.665 C36.6000005,10.7550005 36.7199993,10.8224998 36.87,10.8675 C37.0200008,10.9125002 37.2049989,10.9499999 37.425,10.98 L37.23,12.15 Z" id="Scroll" fill="#FFFFFF" sketch:type="MSShapeGroup"></path>
                <path d="M19,21.918152 L19,76.9390335" id="Line" stroke="#FFFFFF" stroke-width="2" stroke-linecap="square" sketch:type="MSShapeGroup"></path>
            </g>
        </g>
    </g>
</svg>