<?xml version="1.0" encoding="UTF-8" standalone="no"?>
<svg width="97px" height="84px" viewBox="0 0 97 84" version="1.1" xmlns="http://www.w3.org/2000/svg" xmlns:xlink="http://www.w3.org/1999/xlink" xmlns:sketch="http://www.bohemiancoding.com/sketch/ns">
    <!-- Generator: Sketch 3.5.1 (25234) - http://www.bohemiancoding.com/sketch -->
    <title>Group 3</title>
    <desc>Created with Sketch.</desc>
    <defs></defs>
    <g id="Welcome" stroke="none" stroke-width="1" fill="none" fill-rule="evenodd" sketch:type="MSPage">
        <g id="Services" sketch:type="MSArtboardGroup" transform="translate(-634.000000, -2992.000000)">
            <g id="Group-3" sketch:type="MSLayerGroup" transform="translate(634.000000, 2992.000000)">
                <path d="M89.4207727,66 L61.7272727,66 C60.5103636,66 59.5227273,65.0166 59.5227273,63.8 C59.5227273,62.5834 60.5103636,61.6 61.7272727,61.6 L89.4207727,61.6 C91.1689773,61.6 92.5909091,60.1788 92.5909091,58.4364 L92.5909091,7.5636 C92.5909091,5.8212 91.1667727,4.4 89.4207727,4.4 L7.57922727,4.4 C5.83102273,4.4 4.40909091,5.8212 4.40909091,7.5636 L4.40909091,58.4364 C4.40909091,60.1788 5.83102273,61.6 7.57922727,61.6 L48.5,61.6 C49.7169091,61.6 50.7045455,62.5834 50.7045455,63.8 C50.7045455,65.0166 49.7169091,66 48.5,66 L7.57922727,66 C3.39940909,66 0,62.6054 0,58.4364 L0,7.5636 C0,3.3946 3.39940909,0 7.57922727,0 L89.4207727,0 C93.6005909,0 97,3.3946 97,7.5636 L97,58.4364 C97,62.6054 93.6005909,66 89.4207727,66" id="Shape" fill="#1C2731" sketch:type="MSShapeGroup"></path>
                <path d="M64.8350184,83.9994369 C64.2809216,83.9994369 63.7268248,83.7764296 63.3047589,83.3394256 L48,67.4113039 L32.6952411,83.3394256 C31.8489448,84.2201915 30.478854,84.2201915 29.6347222,83.3394256 C28.7884259,82.4564071 28.7884259,81.0350177 29.6347222,80.1542518 L46.4697406,62.6335432 C47.2814057,61.7888189 48.7185943,61.7888189 49.5302594,62.6335432 L66.3652778,80.1542518 C67.2115741,81.0350177 67.2115741,82.4564071 66.3652778,83.3394256 C65.9410475,83.7764296 65.3869507,83.9994369 64.8350184,83.9994369" id="Shape" fill="#1C2731" sketch:type="MSShapeGroup"></path>
                <path d="M85.825,57 L3.175,57 C1.9744,57 1,56.106 1,55 C1,53.894 1.9744,53 3.175,53 L85.825,53 C87.027775,53 88,53.894 88,55 C88,56.106 87.027775,57 85.825,57" id="Shape" fill="#1C2731" sketch:type="MSShapeGroup"></path>
                <path d="M14.348959,24 C13.7477758,24 13.1465926,23.7674902 12.6886601,23.3118649 C11.7704466,22.3912199 11.7704466,20.9092634 12.6886601,19.990967 L20.9925033,11.6887223 C21.9083683,10.7704259 23.3948878,10.7704259 24.3131012,11.6887223 C25.2289663,12.6046701 25.2289663,14.0889752 24.3131012,15.0096202 L16.009258,23.3118649 C15.5513255,23.7674902 14.9477939,24 14.348959,24" id="Shape" fill="#831E34" sketch:type="MSShapeGroup"></path>
                <path d="M19.1526827,32 C18.6017337,32 18.0507846,31.7869249 17.6311164,31.3693839 C16.7896279,30.5256928 16.7896279,29.1676083 17.6311164,28.3260694 L31.3273651,14.6311542 C32.1667015,13.7896153 33.526857,13.7896153 34.3704977,14.6311542 C35.2098341,15.4705408 35.2098341,16.8329298 34.3704977,17.6744687 L20.674249,31.3693839 C20.2545808,31.7890772 19.7036317,32 19.1526827,32" id="Shape" fill="#831E34" sketch:type="MSShapeGroup"></path>
            </g>
        </g>
    </g>
</svg>