<?xml version="1.0" encoding="UTF-8" standalone="no"?>
<svg width="80px" height="92px" viewBox="0 0 80 92" version="1.1" xmlns="http://www.w3.org/2000/svg" xmlns:xlink="http://www.w3.org/1999/xlink" xmlns:sketch="http://www.bohemiancoding.com/sketch/ns">
    <!-- Generator: Sketch 3.5.1 (25234) - http://www.bohemiancoding.com/sketch -->
    <title>Group 2</title>
    <desc>Created with Sketch.</desc>
    <defs></defs>
    <g id="Welcome" stroke="none" stroke-width="1" fill="none" fill-rule="evenodd" sketch:type="MSPage">
        <g id="Services" sketch:type="MSArtboardGroup" transform="translate(-1067.000000, -2986.000000)">
            <g id="Group-2" sketch:type="MSLayerGroup" transform="translate(1067.000000, 2986.000000)">
                <path d="M71.9856475,32 L6.01593581,32 C3.64932886,32 1.56063538,30.6902207 0.566226219,28.5783614 C-0.428182942,26.4729018 -0.0959894888,24.0623958 1.43036344,22.2875808 L18.6067191,2.34437704 C19.8898977,0.853276448 21.7636425,0 23.7481184,0 L54.2512937,0 C56.2357697,0 58.1095144,0.851143257 59.3948643,2.34224385 L76.5690487,22.289714 C78.0975728,24.0623958 78.4275951,26.4729018 77.4331859,28.5783614 C76.4409479,30.6902207 74.3522545,32 71.9856475,32 L71.9856475,32 Z M23.7481184,4.26851543 C23.0424787,4.26851543 22.3759206,4.57356176 21.9199688,5.10259316 L4.74578438,25.0457969 C4.12699265,25.7646824 4.37233814,26.5048997 4.50695248,26.7886141 C4.63939562,27.0701953 5.05626584,27.7336178 6.01593581,27.7336178 L71.9856475,27.7336178 C72.9431463,27.7336178 73.3621877,27.0680621 73.4946308,26.7886141 C73.6292452,26.5027665 73.8724195,25.7646824 73.2536278,25.0479301 L56.0816145,5.10045997 C55.6256627,4.57356176 54.9591046,4.26851543 54.2512937,4.26851543 L23.7481184,4.26851543 L23.7481184,4.26851543 Z" id="Shape" fill="#1C2731" sketch:type="MSShapeGroup"></path>
                <path d="M40.0008042,92 C39.2907759,92 38.6264856,91.6513103 38.2191995,91.062069 L1.10170935,37.6132414 C-0.198557144,35.744 -0.359729205,33.3230345 0.681355192,31.2904828 C1.72026159,29.2601379 3.76976037,28 6.02834723,28 L73.9732611,28 C76.227492,28 78.2791688,29.2601379 79.3202532,31.2904828 C80.3591596,33.3230345 80.1979875,35.7462069 78.899899,37.6132414 L41.7824089,91.062069 C41.3751227,91.6513103 40.7108324,92 40.0008042,92 L40.0008042,92 Z M6.03052523,32.4137931 C5.11576488,32.4137931 4.69105472,33.0515862 4.54948467,33.3252414 C4.41009261,33.5988966 4.14002051,34.3183448 4.66709671,35.0775172 L40.0029822,85.9597241 L75.3388676,35.0775172 C75.8659438,34.3183448 75.5980497,33.5988966 75.4564797,33.3252414 C75.3192656,33.0515862 74.8923775,32.4137931 73.9776171,32.4137931 L6.03052523,32.4137931 L6.03052523,32.4137931 Z" id="Shape" fill="#1C2731" sketch:type="MSShapeGroup"></path>
                <path d="M40.0580358,90 C39.1304908,90 38.3067122,89.3722104 38.0356488,88.4480866 L21.0941868,31.3763079 C20.9141838,30.7770542 20.9946557,30.1207288 21.3144258,29.582937 L38.2558878,1.04704763 C38.6518945,0.379746835 39.3803774,0.0395112314 40.1194486,0 C40.8754614,0.026340821 41.5637083,0.463159435 41.9237143,1.15680105 L56.7474936,29.6926904 C57.0037332,30.1843857 57.0672637,30.7616887 56.9274966,31.3016756 L42.1037174,88.3734543 C41.8580662,89.3195288 41.0406406,89.9978049 40.0961541,89.9978049 L40.0580358,89.9978049 L40.0580358,90 Z M25.4227303,31.0382674 L39.9225041,79.8851248 L52.6180122,31.0031463 L39.9373279,6.58959538 L25.4227303,31.0382674 L25.4227303,31.0382674 Z" id="Shape" fill="#831E34" sketch:type="MSShapeGroup"></path>
            </g>
        </g>
    </g>
</svg>